<mxfile host="65bd71144e">
    <diagram id="C5RBs43oDa-KdzZeNtuy" name="Page-1">
        <mxGraphModel dx="812" dy="1836" grid="1" gridSize="10" guides="1" tooltips="1" connect="1" arrows="1" fold="1" page="1" pageScale="1" pageWidth="827" pageHeight="1169" math="0" shadow="0">
            <root>
                <mxCell id="WIyWlLk6GJQsqaUBKTNV-0"/>
                <mxCell id="WIyWlLk6GJQsqaUBKTNV-1" parent="WIyWlLk6GJQsqaUBKTNV-0"/>
                <mxCell id="Nnn05chG0eaQS7qh2sse-32" value="管理员登录系统" style="swimlane;childLayout=stackLayout;resizeParent=1;resizeParentMax=0;startSize=20;" parent="WIyWlLk6GJQsqaUBKTNV-1" vertex="1">
                    <mxGeometry x="80" y="-60" width="1135" height="1120" as="geometry"/>
                </mxCell>
                <mxCell id="Nnn05chG0eaQS7qh2sse-33" value="前端" style="swimlane;startSize=20;" parent="Nnn05chG0eaQS7qh2sse-32" vertex="1">
                    <mxGeometry y="20" width="435" height="1100" as="geometry"/>
                </mxCell>
                <mxCell id="WIyWlLk6GJQsqaUBKTNV-3" value="管理员登录按钮" style="rounded=1;whiteSpace=wrap;html=1;fontSize=12;glass=0;strokeWidth=1;shadow=0;" parent="Nnn05chG0eaQS7qh2sse-33" vertex="1">
                    <mxGeometry x="90" y="30" width="120" height="40" as="geometry"/>
                </mxCell>
                <mxCell id="iS-OtDxBqbeYaa8vzJeI-2" value="Tomcat服务器" style="rounded=1;whiteSpace=wrap;html=1;" parent="Nnn05chG0eaQS7qh2sse-33" vertex="1">
                    <mxGeometry x="360" y="160" width="120" height="40" as="geometry"/>
                </mxCell>
                <mxCell id="iS-OtDxBqbeYaa8vzJeI-5" value="POST /takeout_bin/adminlogin" style="text;html=1;align=center;verticalAlign=middle;resizable=0;points=[];autosize=1;strokeColor=none;fillColor=none;" parent="Nnn05chG0eaQS7qh2sse-33" vertex="1">
                    <mxGeometry x="225" y="100" width="180" height="20" as="geometry"/>
                </mxCell>
                <mxCell id="0su01C4IOqTVJXGGitPO-1" style="edgeStyle=orthogonalEdgeStyle;rounded=0;orthogonalLoop=1;jettySize=auto;html=1;" parent="Nnn05chG0eaQS7qh2sse-33" source="CLrBrozOyrgCROqdUv1q-2" target="iS-OtDxBqbeYaa8vzJeI-2" edge="1">
                    <mxGeometry relative="1" as="geometry"/>
                </mxCell>
                <mxCell id="CLrBrozOyrgCROqdUv1q-2" value="传入&lt;br&gt;账号 adminAccount &lt;br&gt;密码 adminPasswd" style="rounded=1;whiteSpace=wrap;html=1;" parent="Nnn05chG0eaQS7qh2sse-33" vertex="1">
                    <mxGeometry x="90" y="100" width="120" height="50" as="geometry"/>
                </mxCell>
                <mxCell id="CLrBrozOyrgCROqdUv1q-1" style="edgeStyle=orthogonalEdgeStyle;rounded=0;orthogonalLoop=1;jettySize=auto;html=1;exitX=0.5;exitY=1;exitDx=0;exitDy=0;" parent="Nnn05chG0eaQS7qh2sse-33" source="WIyWlLk6GJQsqaUBKTNV-3" target="CLrBrozOyrgCROqdUv1q-2" edge="1">
                    <mxGeometry relative="1" as="geometry">
                        <mxPoint x="150" y="100" as="targetPoint"/>
                    </mxGeometry>
                </mxCell>
                <mxCell id="44" style="edgeStyle=none;html=1;entryX=0;entryY=0.5;entryDx=0;entryDy=0;" edge="1" parent="Nnn05chG0eaQS7qh2sse-33" target="WIyWlLk6GJQsqaUBKTNV-3">
                    <mxGeometry relative="1" as="geometry">
                        <mxPoint x="130" y="750" as="sourcePoint"/>
                        <Array as="points">
                            <mxPoint x="50" y="750"/>
                            <mxPoint x="50" y="50"/>
                            <mxPoint x="80" y="50"/>
                        </Array>
                    </mxGeometry>
                </mxCell>
                <mxCell id="45" value="N&lt;br&gt;" style="edgeLabel;html=1;align=center;verticalAlign=middle;resizable=0;points=[];" vertex="1" connectable="0" parent="44">
                    <mxGeometry x="-0.9303" relative="1" as="geometry">
                        <mxPoint as="offset"/>
                    </mxGeometry>
                </mxCell>
                <mxCell id="47" value="" style="edgeStyle=none;html=1;" edge="1" parent="Nnn05chG0eaQS7qh2sse-33" source="43" target="46">
                    <mxGeometry relative="1" as="geometry"/>
                </mxCell>
                <mxCell id="48" value="Y" style="edgeLabel;html=1;align=center;verticalAlign=middle;resizable=0;points=[];" vertex="1" connectable="0" parent="47">
                    <mxGeometry x="-0.3397" y="-2" relative="1" as="geometry">
                        <mxPoint as="offset"/>
                    </mxGeometry>
                </mxCell>
                <mxCell id="43" value="返回结果是否为&lt;br&gt;{message: &quot;success&quot;}" style="rhombus;whiteSpace=wrap;html=1;" parent="Nnn05chG0eaQS7qh2sse-33" vertex="1">
                    <mxGeometry x="130" y="710" width="140" height="80" as="geometry"/>
                </mxCell>
                <mxCell id="46" value="跳转到管理员操作面板" style="whiteSpace=wrap;html=1;" vertex="1" parent="Nnn05chG0eaQS7qh2sse-33">
                    <mxGeometry x="125" y="880" width="150" height="60" as="geometry"/>
                </mxCell>
                <mxCell id="Nnn05chG0eaQS7qh2sse-34" value="后端" style="swimlane;startSize=20;" parent="Nnn05chG0eaQS7qh2sse-32" vertex="1">
                    <mxGeometry x="435" y="20" width="400" height="1100" as="geometry"/>
                </mxCell>
                <mxCell id="8" style="edgeStyle=none;html=1;entryX=0.5;entryY=0;entryDx=0;entryDy=0;fontColor=#FFFFFF;" parent="Nnn05chG0eaQS7qh2sse-34" source="Nnn05chG0eaQS7qh2sse-3" target="WIyWlLk6GJQsqaUBKTNV-6" edge="1">
                    <mxGeometry relative="1" as="geometry"/>
                </mxCell>
                <mxCell id="Nnn05chG0eaQS7qh2sse-3" value="JSONReader将JSON字符串转化为JSONObject，并提取出关键数据" style="rounded=1;whiteSpace=wrap;html=1;" parent="Nnn05chG0eaQS7qh2sse-34" vertex="1">
                    <mxGeometry x="75" y="240" width="155" height="40" as="geometry"/>
                </mxCell>
                <mxCell id="10" style="edgeStyle=none;html=1;entryX=0.5;entryY=0;entryDx=0;entryDy=0;fontColor=#FFFFFF;" parent="Nnn05chG0eaQS7qh2sse-34" source="WIyWlLk6GJQsqaUBKTNV-6" target="WIyWlLk6GJQsqaUBKTNV-7" edge="1">
                    <mxGeometry relative="1" as="geometry">
                        <Array as="points">
                            <mxPoint x="150" y="520"/>
                            <mxPoint x="80" y="520"/>
                        </Array>
                    </mxGeometry>
                </mxCell>
                <mxCell id="11" style="edgeStyle=none;html=1;entryX=0.5;entryY=0;entryDx=0;entryDy=0;fontColor=#FFFFFF;" parent="Nnn05chG0eaQS7qh2sse-34" source="WIyWlLk6GJQsqaUBKTNV-6" target="CLrBrozOyrgCROqdUv1q-3" edge="1">
                    <mxGeometry relative="1" as="geometry">
                        <Array as="points">
                            <mxPoint x="153" y="520"/>
                            <mxPoint x="250" y="520"/>
                        </Array>
                    </mxGeometry>
                </mxCell>
                <mxCell id="WIyWlLk6GJQsqaUBKTNV-6" value="传入的管理员用户名是否与数据库内存入的相等？" style="rhombus;whiteSpace=wrap;html=1;shadow=0;fontFamily=Helvetica;fontSize=12;align=center;strokeWidth=1;spacing=6;spacingTop=-4;" parent="Nnn05chG0eaQS7qh2sse-34" vertex="1">
                    <mxGeometry x="67.5" y="345" width="170" height="130" as="geometry"/>
                </mxCell>
                <mxCell id="35" style="edgeStyle=none;html=1;fontColor=#FFFFFF;" parent="Nnn05chG0eaQS7qh2sse-34" source="WIyWlLk6GJQsqaUBKTNV-7" target="34" edge="1">
                    <mxGeometry relative="1" as="geometry">
                        <Array as="points">
                            <mxPoint x="80" y="800"/>
                            <mxPoint x="180" y="800"/>
                        </Array>
                    </mxGeometry>
                </mxCell>
                <mxCell id="WIyWlLk6GJQsqaUBKTNV-7" value="res=Wrong name" style="rounded=1;whiteSpace=wrap;html=1;fontSize=12;glass=0;strokeWidth=1;shadow=0;" parent="Nnn05chG0eaQS7qh2sse-34" vertex="1">
                    <mxGeometry x="20" y="540" width="120" height="40" as="geometry"/>
                </mxCell>
                <mxCell id="CLrBrozOyrgCROqdUv1q-3" value="传入的管理员密码是否与数据库内存入的相等？" style="rhombus;whiteSpace=wrap;html=1;" parent="Nnn05chG0eaQS7qh2sse-34" vertex="1">
                    <mxGeometry x="190" y="540" width="120" height="80" as="geometry"/>
                </mxCell>
                <mxCell id="38" style="edgeStyle=none;html=1;entryX=0.5;entryY=0;entryDx=0;entryDy=0;fontColor=#FFFFFF;" parent="Nnn05chG0eaQS7qh2sse-34" source="CLrBrozOyrgCROqdUv1q-12" target="34" edge="1">
                    <mxGeometry relative="1" as="geometry"/>
                </mxCell>
                <mxCell id="CLrBrozOyrgCROqdUv1q-12" value="res=success" style="rounded=1;whiteSpace=wrap;html=1;" parent="Nnn05chG0eaQS7qh2sse-34" vertex="1">
                    <mxGeometry x="120" y="690" width="120" height="40" as="geometry"/>
                </mxCell>
                <mxCell id="CLrBrozOyrgCROqdUv1q-13" value="res=Wrong password" style="rounded=1;whiteSpace=wrap;html=1;" parent="Nnn05chG0eaQS7qh2sse-34" vertex="1">
                    <mxGeometry x="280" y="690" width="120" height="40" as="geometry"/>
                </mxCell>
                <mxCell id="0" value="&lt;font color=&quot;#ffffff&quot;&gt;数据库内存入的管理员用户名&lt;br&gt;&lt;/font&gt;" style="text;html=1;align=center;verticalAlign=middle;resizable=0;points=[];autosize=1;strokeColor=none;fillColor=none;fontColor=#000000;" parent="Nnn05chG0eaQS7qh2sse-34" vertex="1">
                    <mxGeometry x="290" y="420" width="170" height="20" as="geometry"/>
                </mxCell>
                <mxCell id="12" value="N" style="text;html=1;align=center;verticalAlign=middle;resizable=0;points=[];autosize=1;strokeColor=none;fillColor=none;fontColor=#FFFFFF;" parent="Nnn05chG0eaQS7qh2sse-34" vertex="1">
                    <mxGeometry x="92.5" y="490" width="20" height="20" as="geometry"/>
                </mxCell>
                <mxCell id="13" value="Y" style="text;html=1;align=center;verticalAlign=middle;resizable=0;points=[];autosize=1;strokeColor=none;fillColor=none;fontColor=#FFFFFF;" parent="Nnn05chG0eaQS7qh2sse-34" vertex="1">
                    <mxGeometry x="190" y="490" width="20" height="20" as="geometry"/>
                </mxCell>
                <mxCell id="30" style="edgeStyle=none;html=1;entryX=0.5;entryY=0;entryDx=0;entryDy=0;fontColor=#FFFFFF;" parent="Nnn05chG0eaQS7qh2sse-34" source="CLrBrozOyrgCROqdUv1q-3" edge="1">
                    <mxGeometry relative="1" as="geometry">
                        <mxPoint x="251.0479632063075" y="619.9996189224706" as="sourcePoint"/>
                        <mxPoint x="180" y="686.11" as="targetPoint"/>
                        <Array as="points">
                            <mxPoint x="245" y="666"/>
                            <mxPoint x="180" y="666.11"/>
                        </Array>
                    </mxGeometry>
                </mxCell>
                <mxCell id="31" style="edgeStyle=none;html=1;entryX=0.5;entryY=0;entryDx=0;entryDy=0;fontColor=#FFFFFF;exitX=0.5;exitY=1;exitDx=0;exitDy=0;" parent="Nnn05chG0eaQS7qh2sse-34" source="CLrBrozOyrgCROqdUv1q-3" edge="1">
                    <mxGeometry relative="1" as="geometry">
                        <mxPoint x="252.79443112176932" y="620.8848467892352" as="sourcePoint"/>
                        <mxPoint x="350" y="686.11" as="targetPoint"/>
                        <Array as="points">
                            <mxPoint x="253" y="666"/>
                            <mxPoint x="350" y="666.11"/>
                        </Array>
                    </mxGeometry>
                </mxCell>
                <mxCell id="32" value="N" style="text;html=1;align=center;verticalAlign=middle;resizable=0;points=[];autosize=1;strokeColor=none;fillColor=none;fontColor=#FFFFFF;" parent="Nnn05chG0eaQS7qh2sse-34" vertex="1">
                    <mxGeometry x="192.5" y="636.11" width="20" height="20" as="geometry"/>
                </mxCell>
                <mxCell id="33" value="Y" style="text;html=1;align=center;verticalAlign=middle;resizable=0;points=[];autosize=1;strokeColor=none;fillColor=none;fontColor=#FFFFFF;" parent="Nnn05chG0eaQS7qh2sse-34" vertex="1">
                    <mxGeometry x="290" y="636.11" width="20" height="20" as="geometry"/>
                </mxCell>
                <mxCell id="34" value="将res封装到JSONObject再转换为JSON字符串" style="rounded=1;whiteSpace=wrap;html=1;labelBackgroundColor=none;fontColor=#FFFFFF;" parent="Nnn05chG0eaQS7qh2sse-34" vertex="1">
                    <mxGeometry x="120" y="840" width="120" height="60" as="geometry"/>
                </mxCell>
                <mxCell id="37" style="edgeStyle=none;html=1;fontColor=#FFFFFF;entryX=0.5;entryY=0;entryDx=0;entryDy=0;" parent="Nnn05chG0eaQS7qh2sse-34" source="CLrBrozOyrgCROqdUv1q-13" target="34" edge="1">
                    <mxGeometry relative="1" as="geometry">
                        <mxPoint x="340" y="820" as="targetPoint"/>
                        <Array as="points">
                            <mxPoint x="340" y="800"/>
                            <mxPoint x="180" y="800"/>
                        </Array>
                    </mxGeometry>
                </mxCell>
                <mxCell id="Nnn05chG0eaQS7qh2sse-35" value="数据库" style="swimlane;startSize=20;" parent="Nnn05chG0eaQS7qh2sse-32" vertex="1">
                    <mxGeometry x="835" y="20" width="300" height="1100" as="geometry"/>
                </mxCell>
                <mxCell id="Nnn05chG0eaQS7qh2sse-37" style="edgeStyle=orthogonalEdgeStyle;rounded=0;orthogonalLoop=1;jettySize=auto;html=1;exitX=0.5;exitY=1;exitDx=0;exitDy=0;exitPerimeter=0;" parent="Nnn05chG0eaQS7qh2sse-35" source="41" edge="1">
                    <mxGeometry relative="1" as="geometry">
                        <mxPoint x="160" y="80" as="sourcePoint"/>
                        <mxPoint x="160" y="380" as="targetPoint"/>
                    </mxGeometry>
                </mxCell>
                <mxCell id="3" style="edgeStyle=none;html=1;fontColor=#FFFFFF;" parent="Nnn05chG0eaQS7qh2sse-35" target="1" edge="1">
                    <mxGeometry relative="1" as="geometry">
                        <mxPoint x="160" y="260" as="sourcePoint"/>
                    </mxGeometry>
                </mxCell>
                <mxCell id="0su01C4IOqTVJXGGitPO-5" style="edgeStyle=orthogonalEdgeStyle;rounded=0;orthogonalLoop=1;jettySize=auto;html=1;" parent="Nnn05chG0eaQS7qh2sse-35" source="0su01C4IOqTVJXGGitPO-3" edge="1">
                    <mxGeometry relative="1" as="geometry">
                        <mxPoint x="160" y="390" as="targetPoint"/>
                    </mxGeometry>
                </mxCell>
                <mxCell id="0su01C4IOqTVJXGGitPO-3" value="JDBC Driver" style="rounded=1;whiteSpace=wrap;html=1;" parent="Nnn05chG0eaQS7qh2sse-35" vertex="1">
                    <mxGeometry x="-65" y="230" width="120" height="60" as="geometry"/>
                </mxCell>
                <mxCell id="1" value="得到查询结果集" style="rounded=1;whiteSpace=wrap;html=1;" parent="Nnn05chG0eaQS7qh2sse-35" vertex="1">
                    <mxGeometry x="100" y="380" width="120" height="60" as="geometry"/>
                </mxCell>
                <mxCell id="29" value="&lt;font color=&quot;#ffffff&quot;&gt;数据库内存入的管理员密码&lt;br&gt;&lt;/font&gt;" style="text;html=1;align=center;verticalAlign=middle;resizable=0;points=[];autosize=1;strokeColor=none;fillColor=none;fontColor=#000000;" parent="Nnn05chG0eaQS7qh2sse-35" vertex="1">
                    <mxGeometry x="-65" y="550" width="160" height="20" as="geometry"/>
                </mxCell>
                <mxCell id="41" value="&lt;span style=&quot;color: rgb(240 , 240 , 240)&quot;&gt;连接数据库中admin表格&lt;/span&gt;" style="shape=cylinder3;whiteSpace=wrap;html=1;boundedLbl=1;backgroundOutline=1;size=15;labelBackgroundColor=none;fontColor=#FFFFFF;" parent="Nnn05chG0eaQS7qh2sse-35" vertex="1">
                    <mxGeometry x="115" y="40" width="90" height="80" as="geometry"/>
                </mxCell>
                <mxCell id="0su01C4IOqTVJXGGitPO-0" style="edgeStyle=orthogonalEdgeStyle;rounded=0;orthogonalLoop=1;jettySize=auto;html=1;entryX=0.5;entryY=0;entryDx=0;entryDy=0;" parent="Nnn05chG0eaQS7qh2sse-32" source="iS-OtDxBqbeYaa8vzJeI-2" target="Nnn05chG0eaQS7qh2sse-3" edge="1">
                    <mxGeometry relative="1" as="geometry"/>
                </mxCell>
                <mxCell id="0su01C4IOqTVJXGGitPO-2" style="edgeStyle=orthogonalEdgeStyle;rounded=0;orthogonalLoop=1;jettySize=auto;html=1;" parent="Nnn05chG0eaQS7qh2sse-32" source="Nnn05chG0eaQS7qh2sse-3" target="0su01C4IOqTVJXGGitPO-3" edge="1">
                    <mxGeometry relative="1" as="geometry">
                        <mxPoint x="770" y="280" as="targetPoint"/>
                    </mxGeometry>
                </mxCell>
                <mxCell id="5" style="edgeStyle=none;html=1;fontColor=#FFFFFF;" parent="Nnn05chG0eaQS7qh2sse-32" source="1" target="WIyWlLk6GJQsqaUBKTNV-6" edge="1">
                    <mxGeometry relative="1" as="geometry"/>
                </mxCell>
                <mxCell id="14" style="edgeStyle=none;html=1;fontColor=#FFFFFF;entryX=1;entryY=0.5;entryDx=0;entryDy=0;" parent="Nnn05chG0eaQS7qh2sse-32" source="1" target="CLrBrozOyrgCROqdUv1q-3" edge="1">
                    <mxGeometry relative="1" as="geometry">
                        <mxPoint x="990" y="570" as="targetPoint"/>
                        <Array as="points">
                            <mxPoint x="995" y="600"/>
                        </Array>
                    </mxGeometry>
                </mxCell>
                <mxCell id="39" style="edgeStyle=none;html=1;fontColor=#FFFFFF;entryX=1;entryY=0.5;entryDx=0;entryDy=0;" parent="Nnn05chG0eaQS7qh2sse-32" source="34" target="43" edge="1">
                    <mxGeometry relative="1" as="geometry">
                        <mxPoint x="180" y="890" as="targetPoint"/>
                        <Array as="points">
                            <mxPoint x="340" y="890"/>
                            <mxPoint x="340" y="770"/>
                        </Array>
                    </mxGeometry>
                </mxCell>
                <mxCell id="0su01C4IOqTVJXGGitPO-6" value="查询语句" style="text;html=1;align=center;verticalAlign=middle;resizable=0;points=[];autosize=1;strokeColor=none;fillColor=none;" parent="WIyWlLk6GJQsqaUBKTNV-1" vertex="1">
                    <mxGeometry x="950" y="180" width="60" height="20" as="geometry"/>
                </mxCell>
                <mxCell id="9" value="传入的管理员用户名与密码" style="text;html=1;align=center;verticalAlign=middle;resizable=0;points=[];autosize=1;strokeColor=none;fillColor=none;fontColor=#FFFFFF;" parent="WIyWlLk6GJQsqaUBKTNV-1" vertex="1">
                    <mxGeometry x="580" y="240" width="160" height="20" as="geometry"/>
                </mxCell>
            </root>
        </mxGraphModel>
    </diagram>
</mxfile>